<?xml version="1.0" encoding="utf-8"?>
<!-- Generator: Adobe Illustrator 24.3.0, SVG Export Plug-In . SVG Version: 6.00 Build 0)  -->
<svg version="1.1" id="Layer_1" xmlns="http://www.w3.org/2000/svg" xmlns:xlink="http://www.w3.org/1999/xlink" x="0px" y="0px"
	 viewBox="0 0 512 512" style="enable-background:new 0 0 512 512;" xml:space="preserve">
<style type="text/css">
	.st0{fill:none;}
	.st1{fill:#77DD77;}
	.st2{fill:#DA70D6;}
	.st3{fill:#21AA21;}
	.st4{fill:#DA4DD6;}
</style>
<g>
	<g>
		<path class="st0" d="M264.6,44.03c-0.44,0.99-0.24,1.44,0.27,1.59C264.62,44.94,264.47,44.33,264.6,44.03z"/>
		<path class="st0" d="M438.38,274.74c6.46-1.98,13.31-4.84,20.08-6.69c-2.88-1.3-5.62-2.67-7.49-3.33
			c-12.24-4.37-24.47-8.74-36.71-13.11c-17.05-6.09-34.1-12.18-51.15-18.27c6.03,19.65,12.07,39.3,18.1,58.95
			C400.26,286.44,419.32,280.59,438.38,274.74z"/>
		<path class="st0" d="M317.74,217.13c-32.27-11.53-64.55-23.05-96.82-34.58c-21.25,59.5-42.5,119.01-63.75,178.51
			c17.51-5.38,35.02-10.75,52.53-16.13c44.87-13.77,89.73-27.55,134.6-41.32c-0.03-0.11-0.07-0.21-0.1-0.32
			C335.38,274.58,326.56,245.86,317.74,217.13z"/>
		<path class="st0" d="M273.99,74.61c-1.98-6.46-4.84-13.31-6.69-20.08c-1.3,2.88-2.67,5.62-3.33,7.49
			c-4.37,12.24-8.74,24.47-13.11,36.71c-5.66,15.85-11.32,31.69-16.98,47.54c23.25,8.3,46.51,16.61,69.76,24.91
			C293.75,139,283.87,106.81,273.99,74.61z"/>
		<path class="st0" d="M468.96,265.35c-0.99-0.44-1.44-0.24-1.59,0.27C468.06,265.37,468.67,265.21,468.96,265.35z"/>
		<path class="st1" d="M402.22,492.3c7.27,23.69,44.56,13.59,37.24-10.27c-15.64-50.95-31.28-101.89-46.92-152.84
			c-12.3,3.78-24.61,7.55-36.91,11.33C371.16,391.12,386.69,441.71,402.22,492.3z"/>
		<path class="st2" d="M20.69,402.97C-3,410.24,7.1,447.53,30.96,440.21c21.35-6.56,42.71-13.11,64.06-19.67
			c5.4-15.12,10.8-30.24,16.2-45.37C81.04,384.44,50.87,393.7,20.69,402.97z"/>
		<path class="st3" d="M184.64,169.6c-13.87,38.84-27.74,77.68-41.62,116.52c-10.6,29.68-21.2,59.37-31.8,89.05
			c-5.4,15.12-10.8,30.24-16.2,45.37c-7.32,20.5-14.64,41-21.96,61.5c-8.37,23.45,28.93,33.54,37.24,10.27
			c10.22-28.62,20.44-57.25,30.67-85.87c5.4-15.12,10.8-30.24,16.2-45.37c21.25-59.5,42.5-119.01,63.75-178.51
			C208.83,178.24,196.73,173.92,184.64,169.6z"/>
		<path class="st4" d="M303.64,171.19c-23.25-8.3-46.51-16.61-69.76-24.91c-2.33-0.83-4.67-1.67-7-2.5
			c-9.76-3.49-19.52-6.97-29.28-10.46C142.05,113.48,86.5,93.64,30.96,73.8c-23.45-8.37-33.54,28.93-10.27,37.24
			c54.65,19.52,109.3,39.04,163.95,58.55c12.09,4.32,24.19,8.64,36.28,12.96c32.27,11.53,64.55,23.05,96.82,34.58
			C313.04,201.82,308.34,186.5,303.64,171.19z"/>
	</g>
	<g>
		<path class="st1" d="M363.11,233.34c-4.7-15.31-9.4-30.63-14.1-45.94c-12.25-39.89-24.49-79.78-36.74-119.67
			c-6.13-19.97-10.02-48.93-31.98-57.31c-4.54-1.73-8.97-2.46-13.21-2.41c0,15.44,0,30.87,0,46.31c1.84,6.77,4.93,13.85,6.91,20.3
			c9.88,32.19,19.77,64.38,29.65,96.58c4.7,15.31,9.4,30.63,14.11,45.94c8.82,28.72,17.64,57.44,26.45,86.17
			c0.03,0.11,0.07,0.21,0.1,0.32c12.3-3.78,24.61-7.55,36.91-11.33C375.17,272.64,369.14,252.99,363.11,233.34z"/>
		<path class="st3" d="M232.84,34.64c-2.58,6.78-4.88,13.67-7.32,20.5c-9.31,26.06-18.61,52.12-27.92,78.17
			c9.76,3.49,19.52,6.97,29.28,10.46c2.33,0.83,4.67,1.67,7,2.5c5.66-15.85,11.32-31.69,16.98-47.54
			c4.37-12.24,8.74-24.47,13.11-36.71c0.67-1.87,1.8-4.83,3.11-7.71c0-15.44,0-30.87,0-46.31C251.61,8.18,238.72,19.22,232.84,34.64
			z"/>
	</g>
	<g>
		<path class="st4" d="M478.35,233.59c-6.78-2.58-13.67-4.88-20.5-7.32c-36.28-12.96-72.57-25.92-108.85-38.87
			c4.7,15.31,9.4,30.63,14.1,45.94c17.05,6.09,34.1,12.18,51.15,18.27c12.24,4.37,24.47,8.74,36.71,13.11
			c1.83,0.66,4.52,1.99,7.35,3.27l46.66-0.94C504.45,251.93,493.51,239.37,478.35,233.59z"/>
		<path class="st2" d="M458.32,267.98c0.05,0.02,0.09,0.04,0.14,0.07c-6.77,1.84-13.62,4.7-20.08,6.69
			c-19.06,5.85-38.12,11.7-57.17,17.55c-12.3,3.78-24.61,7.55-36.91,11.33c-44.87,13.77-89.73,27.55-134.6,41.32
			c-17.51,5.38-35.02,10.75-52.53,16.13c-5.4,15.12-10.8,30.24-16.2,45.37c71.55-21.97,143.11-43.93,214.66-65.9
			c12.3-3.78,24.61-7.55,36.91-11.33c17.58-5.4,35.16-10.79,52.73-16.19c19.97-6.13,48.93-10.02,57.31-31.98
			c1.84-4.82,2.55-9.51,2.39-13.99L458.32,267.98z"/>
	</g>
</g>
</svg>
