<?xml version="1.0" standalone="no"?>
<!DOCTYPE svg PUBLIC "-//W3C//DTD SVG 20010904//EN"
 "http://www.w3.org/TR/2001/REC-SVG-20010904/DTD/svg10.dtd">
<svg version="1.0" xmlns="http://www.w3.org/2000/svg"
 width="512.000000pt" height="512.000000pt" viewBox="0 0 512.000000 512.000000"
 preserveAspectRatio="xMidYMid meet">
<metadata>
Created by potrace 1.14, written by Peter Selinger 2001-2017
</metadata>
<g transform="translate(0.000000,512.000000) scale(0.100000,-0.100000)"
fill="#000000" stroke="none">
<path d="M2551 5017 c-71 -28 -168 -123 -203 -197 -14 -30 -103 -273 -198
-540 -95 -267 -174 -486 -175 -488 -2 -2 -1394 492 -1615 573 -113 42 -180 36
-230 -22 -37 -41 -50 -73 -54 -127 -6 -78 34 -160 92 -190 28 -14 923 -337
1062 -383 25 -8 54 -19 65 -23 11 -5 137 -51 280 -101 143 -51 262 -94 264
-95 2 -2 -6 -32 -18 -66 -13 -35 -44 -124 -71 -198 -26 -74 -76 -214 -110
-310 -34 -96 -79 -222 -101 -280 -52 -143 -374 -1047 -406 -1140 -19 -56 -28
-66 -56 -73 -29 -7 -84 -24 -307 -92 -102 -31 -212 -65 -245 -75 -33 -10 -73
-23 -90 -30 -16 -6 -32 -11 -35 -11 -18 4 -239 -75 -261 -92 -65 -52 -85 -164
-44 -250 48 -103 140 -118 335 -55 91 29 418 130 502 154 15 4 14 -3 -7 -58
-13 -35 -51 -142 -85 -238 -56 -160 -85 -241 -106 -295 -29 -78 -16 -153 32
-196 56 -49 148 -67 221 -42 72 25 100 70 171 270 35 98 102 284 149 413 46
129 89 249 94 267 7 24 17 33 42 38 17 4 64 17 102 30 39 12 95 30 125 39 117
36 388 119 445 136 54 16 253 77 615 190 414 128 822 251 825 248 1 -2 78
-248 170 -548 92 -300 198 -646 236 -770 38 -124 78 -236 88 -250 81 -112 274
-99 337 22 30 58 21 109 -69 398 -113 361 -110 354 -158 510 -22 74 -83 274
-135 444 -52 170 -93 310 -92 312 6 5 545 170 618 189 102 26 236 73 293 101
74 38 159 127 185 194 30 81 26 196 -10 270 -48 97 -132 167 -257 214 -56 21
-594 213 -1081 386 -74 27 -147 53 -162 59 -23 9 -31 24 -54 98 -15 48 -29 93
-30 98 -1 6 -59 195 -129 420 -164 532 -189 614 -215 710 -75 275 -144 387
-277 447 -70 32 -189 34 -262 5z m299 -1007 c65 -212 121 -392 123 -400 32
-100 58 -192 56 -194 -3 -2 -570 198 -676 238 -9 4 -2 33 23 103 20 54 40 109
44 123 4 14 28 81 53 150 25 69 75 211 112 315 38 105 73 196 78 203 13 17 32
-36 187 -538z m-523 -759 c59 -22 180 -65 268 -96 88 -31 183 -65 210 -75 28
-10 122 -45 211 -76 l160 -57 113 -366 c132 -429 151 -494 148 -497 -2 -2
-645 -200 -677 -209 -8 -2 -53 -16 -100 -30 -47 -15 -105 -33 -130 -40 -104
-31 -705 -216 -887 -273 -35 -11 -63 -17 -63 -13 0 10 21 70 290 821 83 234
192 538 241 675 49 138 91 256 94 263 6 16 -2 18 122 -27z m1490 -532 c92 -33
191 -68 218 -79 28 -10 147 -53 265 -95 246 -87 270 -97 264 -106 -6 -11 -743
-243 -750 -236 -1 1 -30 92 -64 202 -33 110 -70 229 -82 265 -22 72 -31 110
-24 110 2 0 80 -27 173 -61z"/>
</g>
</svg>
